<?xml version="1.0" encoding="UTF-8" standalone="no"?><!DOCTYPE svg PUBLIC "-//W3C//DTD SVG 1.1//EN" "http://www.w3.org/Graphics/SVG/1.1/DTD/svg11.dtd"><svg width="100%" height="100%" viewBox="0 0 4361 7057" version="1.1" xmlns="http://www.w3.org/2000/svg" xmlns:xlink="http://www.w3.org/1999/xlink" xml:space="preserve" xmlns:serif="http://www.serif.com/" style="fill-rule:evenodd;clip-rule:evenodd;stroke-linejoin:round;stroke-miterlimit:2;"><g><path d="M2186.14,7056.11c-161.542,-792.917 -446.334,-1452.79 -791.25,-2064.33c-255.863,-453.625 -552.25,-872.333 -826.5,-1312.25c-91.55,-146.833 -170.559,-302 -258.53,-454.375c-175.9,-304.75 -318.516,-658.083 -309.454,-1116.42c8.854,-447.792 138.367,-807 325.125,-1100.71c307.163,-483.083 821.667,-879.125 1512,-983.208c564.459,-85.1 1093.67,58.675 1468.92,278.117c306.667,179.325 544.167,418.875 724.667,701.166c188.416,294.65 318.166,642.75 329.041,1096.79c5.584,232.625 -32.499,448.042 -86.166,626.75c-54.292,180.871 -141.625,332.075 -219.334,493.583c-151.708,315.25 -341.875,604.084 -532.75,893.084c-568.5,860.875 -1102.08,1738.79 -1335.75,2941.79l-0.016,0.009Z" style="fill:#f54300;"/><circle cx="2197.39" cy="1974.65" r="763.875" style="fill:#fff;"/></g></svg>